# xmcd
#
# Track frame offsets: 
#        150
#        21305
#        25940
#        43312
#        72107
#        97282
#        117337
#        136632
#        162140
#        191080
#        210035
#        233952
#        288857
#        309922
#        332410
#
# Disc length: 4684 seconds
#
# Revision: 6
# Processed by: cddbd v1.5.2PL0 Copyright (c) Steve Scherf et al.
# Submitted via: ExactAudioCopyFreeDBPlugin 1.0
#
DISCID=ca124a0f
DTITLE=Little Feat - Waiting For Columbus [Disc 1]
DYEAR=2002
DGENRE=Rock
TTITLE0=Willin'
TTITLE1=Don't Bogart That Joint
TTITLE2=A Apolitical Blues
TTITLE3=Sailin' Shoes
TTITLE4=Feats Don't Fail Me Now
TTITLE5=One Love Stand (Previously Unissued Outtake)
TTITLE6=Rock And Roll Doctor (Previously Unissued Outtake)
TTITLE7=Skin It Back (Previously Unissued Outtake)
TTITLE8=On Your Way Down (Previously Unissued Outtake)
TTITLE9=Walkin' All Night (Previously Unissued Outtake)
TTITLE10=Cold, Cold, Cold (Previously Unissued Outtake)
TTITLE11=Day At The Dog Races (Previously Unissued Outtake)
TTITLE12=Skin It Back (Previously Unissued Outtake)
TTITLE13=Red Streamliner (Previously Unissued Outtake)
TTITLE14=Teenage Nervous Breakdown (Previously Unissued Outtake)
EXTD=YEAR: 2002
EXTT0=
EXTT1=
EXTT2=
EXTT3=
EXTT4=
EXTT5=
EXTT6=
EXTT7=
EXTT8=
EXTT9=
EXTT10=
EXTT11=
EXTT12=
EXTT13=
EXTT14=
PLAYORDER=
